HIERARCHY
ROOT Hips
{
 OFFSET 0.000000 0.000000 0.000000
 CHANNELS 6 Xposition Yposition Zposition Yrotation Xrotation Zrotation
 JOINT Chest
 {
  OFFSET 0.000000 9.585900 0.002600
  CHANNELS 3 Yrotation Xrotation Zrotation
  JOINT Chest2
  {
   OFFSET 0.000000 9.601200 -0.005300
   CHANNELS 3 Yrotation Xrotation Zrotation
   JOINT Chest3
   {
    OFFSET 0.000000 9.561800 0.000000
    CHANNELS 3 Yrotation Xrotation Zrotation
    JOINT Chest4
    {
     OFFSET 0.000000 9.552100 0.000000
     CHANNELS 3 Yrotation Xrotation Zrotation
     JOINT Neck
     {
      OFFSET 0.000000 14.453000 0.000000
      CHANNELS 3 Yrotation Xrotation Zrotation
      JOINT Head
      {
       OFFSET 0.000000 8.936500 -0.011300
       CHANNELS 3 Yrotation Xrotation Zrotation
       End Site
       {
        OFFSET 0.000000 17.073600 -0.006000
       }
      }
     }
     JOINT RightCollar
     {
      OFFSET -2.921100 9.558500 0.000000
      CHANNELS 3 Yrotation Xrotation Zrotation
      JOINT RightShoulder
      {
       OFFSET -13.519700 0.000000 0.000000
       CHANNELS 3 Yrotation Xrotation Zrotation
       JOINT RightElbow
       {
        OFFSET 0.000000 -29.696600 0.000000
        CHANNELS 3 Yrotation Xrotation Zrotation
        JOINT RightWrist
        {
         OFFSET 0.000000 -24.004700 0.000000
         CHANNELS 3 Yrotation Xrotation Zrotation
         End Site
         {
          OFFSET 0.000000 -17.728500 0.000000
         }
        }
       }
      }
     }
     JOINT LeftCollar
     {
      OFFSET 2.921100 9.558500 0.000000
      CHANNELS 3 Yrotation Xrotation Zrotation
      JOINT LeftShoulder
      {
       OFFSET 13.519700 0.000000 0.000000
       CHANNELS 3 Yrotation Xrotation Zrotation
       JOINT LeftElbow
       {
        OFFSET 0.000000 -29.696600 0.000000
        CHANNELS 3 Yrotation Xrotation Zrotation
        JOINT LeftWrist
        {
         OFFSET 0.000000 -24.004700 0.000000
         CHANNELS 3 Yrotation Xrotation Zrotation
         End Site
         {
          OFFSET 0.000000 -17.728500 0.000000
         }
        }
       }
      }
     }
    }
   }
  }
 }
 JOINT RightHip
 {
  OFFSET -7.771700 -0.012900 -0.001300
  CHANNELS 3 Yrotation Xrotation Zrotation
  JOINT RightKnee
  {
   OFFSET 0.000000 -40.869800 0.001200
   CHANNELS 3 Yrotation Xrotation Zrotation
   JOINT RightAnkle
   {
    OFFSET 0.000000 -39.717900 0.002100
    CHANNELS 3 Yrotation Xrotation Zrotation
    JOINT RightToe
    {
     OFFSET 0.000000 -4.965400 11.033500
     CHANNELS 3 Yrotation Xrotation Zrotation
     End Site
     {
      OFFSET 0.000000 -1.423100 5.872300
     }
    }
   }
  }
 }
 JOINT LeftHip
 {
  OFFSET 7.771700 -0.012900 -0.001300
  CHANNELS 3 Yrotation Xrotation Zrotation
  JOINT LeftKnee
  {
   OFFSET 0.000000 -40.869800 0.001200
   CHANNELS 3 Yrotation Xrotation Zrotation
   JOINT LeftAnkle
   {
    OFFSET 0.000000 -39.717900 0.002100
    CHANNELS 3 Yrotation Xrotation Zrotation
    JOINT LeftToe
    {
     OFFSET 0.000000 -4.965400 11.033500
     CHANNELS 3 Yrotation Xrotation Zrotation
     End Site
     {
      OFFSET 0.000000 -1.423100 5.872300
     }
    }
   }
  }
 }
}
MOTION
Frames: 11
Frame Time: 0.008333
0.000000 85.388000 0.000000 0.000000 -5.767877 0.000000 0.000000 11.653817 0.000000 0.000000 -5.885947 0.000000 0.000000 -0.000000 0.000000 0.000000 -0.000000 0.000000 0.000000 12.528835 0.000000 0.000000 0.711642 0.000000 0.000000 -0.000000 0.000000 0.000000 0.000000 -90.000000 0.000000 -2.309062 0.000000 0.000000 2.309062 0.000000 0.000000 -0.000000 0.000000 0.000000 -0.000000 90.000000 0.000000 -2.309062 0.000000 0.000000 2.309062 0.000000 0.000000 8.520406 0.000000 0.000000 1.905762 0.000000 -0.000000 -4.658285 0.000000 0.000000 -0.000000 0.000000 0.000000 8.520406 0.000000 0.000000 1.905762 0.000000 -0.000000 -4.658285 0.000000 0.000000 -0.000000 0.000000
-121.973961 49.407656 19.781790 177.419369 -31.197337 -3.503071 1.289436 17.079296 3.305344 0.102182 1.849056 0.293291 0.192346 3.040851 0.488553 1.186372 15.074960 2.557567 9.172614 25.074883 -1.031299 16.858571 11.394684 -3.947525 -1.754188 -10.456619 -5.038540 4.040346 -15.692834 -19.857874 -55.819924 -75.312086 92.883371 19.273401 12.922549 3.997249 -3.957667 -10.567739 6.941910 -7.152474 -12.160788 23.417238 163.208320 -80.431620 169.139011 -8.449261 15.348188 -5.882334 -5.130446 -53.103343 -6.634671 -151.985444 82.876448 -138.814475 -30.360027 -3.484720 -4.605950 -0.186295 -12.465966 0.589834 -16.049428 -54.910843 18.417889 -72.656080 66.209134 -77.437570 30.663746 7.286415 14.512499 -0.014635 -0.582009 -0.025637
-121.985943 49.415317 19.789771 177.384122 -31.100712 -3.512279 1.316662 16.994056 3.330228 0.085691 1.875271 0.295393 0.204107 3.017847 0.484895 1.181484 15.063429 2.557264 9.252983 25.094829 -1.022003 16.998086 11.404341 -3.961884 -1.737336 -10.624628 -5.142852 3.605692 -15.633579 -19.744890 -57.376616 -74.203679 94.516788 18.914787 12.805415 3.997196 -3.932422 -10.729597 7.046172 -6.979923 -12.460295 23.505025 161.112611 -80.052312 171.175270 -8.204431 15.209423 -5.746659 -5.064607 -53.183893 -6.601790 -151.904475 82.927194 -138.738670 -30.363007 -3.454731 -4.626117 -0.156863 -12.432592 0.626080 -16.103800 -54.992465 18.487241 -72.643800 66.223546 -77.405819 30.633641 7.285615 14.487330 0.003520 -0.577633 -0.016527
-122.000548 49.427677 19.789739 177.371991 -31.046953 -3.525684 1.313883 16.988643 3.348338 0.083566 1.852990 0.294800 0.204844 3.019563 0.482644 1.161382 15.029056 2.556133 9.348498 25.114131 -1.023011 17.141160 11.381569 -3.989913 -1.719889 -10.733929 -5.234393 3.042658 -15.651303 -19.604619 -58.734236 -73.186233 96.020516 18.617754 12.722452 3.964550 -3.887453 -10.792866 7.080852 -6.659330 -12.859491 23.578434 160.476274 -79.598573 171.730933 -8.110187 15.069392 -5.560811 -5.011420 -53.217822 -6.587590 -151.771821 82.960402 -138.610583 -30.362750 -3.428980 -4.646761 -0.144554 -12.410605 0.671490 -16.146398 -55.032707 18.523118 -72.619255 66.242971 -77.374904 30.620081 7.295806 14.475511 0.013429 -0.588204 -0.009162
-122.017338 49.439508 19.787842 177.359217 -30.994337 -3.528202 1.295558 16.977643 3.353706 0.076198 1.836925 0.295487 0.178037 3.017920 0.484835 1.203385 15.000160 2.544972 9.451013 25.061430 -1.013541 17.262785 11.370160 -4.016260 -1.745953 -10.807914 -5.297279 2.399838 -15.732964 -19.449759 -60.014116 -72.367543 97.478034 18.366490 12.642955 3.841607 -3.862065 -10.848676 7.111940 -6.226876 -13.271615 23.575054 161.100331 -79.082262 171.028924 -8.174435 14.938085 -5.319383 -4.948417 -53.254711 -6.591967 -151.625433 82.982601 -138.470487 -30.359106 -3.405975 -4.660224 -0.146103 -12.390845 0.715078 -16.172117 -55.069146 18.520693 -72.593187 66.269963 -77.323906 30.606800 7.293119 14.456193 0.028588 -0.583222 -0.012408
-122.033157 49.446554 19.789360 177.307055 -30.910004 -3.513521 1.261229 16.953037 3.357245 0.100370 1.801288 0.289229 0.172182 2.999071 0.483662 1.173790 14.956910 2.545999 9.561146 25.024514 -1.039698 17.416132 11.328964 -4.070787 -1.729795 -10.817328 -5.365907 1.728782 -15.864800 -19.284299 -61.305402 -71.808971 98.943111 18.155773 12.535765 3.578197 -3.805919 -10.939914 7.128407 -5.704113 -13.594509 23.477382 162.654962 -78.528058 169.429297 -8.360774 14.833867 -5.024386 -4.866109 -53.329178 -6.593252 -151.476755 82.994889 -138.309091 -30.352151 -3.414260 -4.678508 -0.138534 -12.354014 0.746081 -16.243071 -55.107366 18.568728 -72.521813 66.311275 -77.238741 30.571697 7.227844 14.408136 0.047996 -0.520915 -0.014180
-122.043939 49.453291 19.785578 177.278463 -30.854099 -3.530533 1.246481 16.914069 3.384027 0.096286 1.791965 0.288701 0.165450 2.984216 0.482770 1.191208 14.949795 2.540700 9.606747 24.945000 -1.057543 17.581798 11.251056 -4.151151 -1.790284 -10.825846 -5.390034 1.071822 -16.035999 -19.103698 -62.646757 -71.519035 100.430171 17.991443 12.397058 3.145417 -3.826393 -10.975402 7.103463 -5.164699 -13.956166 23.394138 164.711429 -77.974991 167.381806 -8.629187 14.791568 -4.688147 -4.847199 -53.374014 -6.554196 -151.373625 83.003955 -138.203710 -30.356416 -3.405350 -4.671185 -0.131341 -12.341996 0.755814 -16.346442 -55.128139 18.664903 -72.507258 66.322347 -77.225569 30.541090 7.189261 14.353689 0.078198 -0.488762 0.004543
-122.055042 49.458096 19.777112 177.255689 -30.821098 -3.534483 1.221543 16.889433 3.393030 0.091834 1.783099 0.288111 0.186431 2.979931 0.478531 1.129815 14.915124 2.545223 9.687925 24.876935 -1.099953 17.744364 11.150764 -4.246588 -1.812242 -10.782917 -5.415841 0.454826 -16.235384 -18.902593 -64.013982 -71.466050 101.908620 17.867660 12.251631 2.527845 -3.800717 -10.936140 7.032395 -4.667390 -14.327144 23.286695 166.955603 -77.467797 165.209561 -8.925136 14.831900 -4.337622 -4.799559 -53.398657 -6.542856 -151.282007 83.008872 -138.123159 -30.349775 -3.393080 -4.676403 -0.150382 -12.325609 0.796285 -16.439463 -55.128295 18.739038 -72.488319 66.331274 -77.226132 30.521198 7.146087 14.311406 0.094617 -0.459199 0.018695
-122.063902 49.460165 19.765126 177.237778 -30.805362 -3.538255 1.194722 16.871572 3.399571 0.087560 1.775790 0.287277 0.203926 2.982908 0.474487 1.003237 14.839163 2.549799 9.822248 24.846168 -1.163242 17.899441 11.030307 -4.352947 -1.772857 -10.672512 -5.448341 -0.105747 -16.458794 -18.682007 -65.323843 -71.598169 103.295410 17.761005 12.126457 1.742687 -3.712279 -10.816890 6.925891 -4.252481 -14.701923 23.150798 169.214384 -77.056734 163.079868 -9.189011 14.940249 -4.004933 -4.749824 -53.407251 -6.540071 -151.162923 82.999924 -138.011029 -30.336330 -3.390569 -4.691583 -0.157582 -12.308045 0.844630 -16.512121 -55.118795 18.797698 -72.500183 66.334621 -77.253475 30.491187 7.100179 14.276659 0.103211 -0.435477 0.032817
-122.072337 49.457505 19.752522 177.240883 -30.785932 -3.538777 1.169080 16.848865 3.394935 0.064546 1.761865 0.286542 0.168322 2.964626 0.479223 0.974870 14.821560 2.532933 9.915490 24.777133 -1.215617 18.048403 10.892896 -4.464755 -1.780232 -10.570357 -5.445106 -0.596132 -16.708351 -18.450680 -66.471554 -71.863025 104.484235 17.649331 12.043062 0.847855 -3.672134 -10.689729 6.840132 -3.944262 -15.095884 22.987217 171.354067 -76.790614 161.104067 -9.371196 15.074608 -3.715802 -4.739644 -53.427737 -6.542219 -151.106512 82.982845 -137.979010 -30.326697 -3.381029 -4.664581 -0.160984 -12.306327 0.849396 -16.544088 -55.130561 18.815440 -72.523075 66.333880 -77.279883 30.445331 7.076062 14.271714 0.149277 -0.411956 0.019557
-122.088246 49.451897 19.735144 177.255331 -30.788980 -3.482023 1.117771 16.847346 3.324438 0.041380 1.745732 0.281494 0.186481 2.974609 0.482244 0.921123 14.796820 2.516248 9.986704 24.688741 -1.263014 18.192537 10.745548 -4.576319 -1.805685 -10.465127 -5.419154 -0.996409 -16.986073 -18.224100 -67.363996 -72.217843 105.381709 17.523488 12.014010 -0.072529 -3.652283 -10.546484 6.773330 -3.747938 -15.521181 22.793319 173.266627 -76.701559 159.360342 -9.450634 15.191875 -3.487999 -4.600224 -53.428748 -6.681180 -151.051353 82.937857 -137.936855 -30.312317 -3.389380 -4.622257 -0.165166 -12.294577 0.867183 -16.544843 -55.123824 18.742194 -72.491806 66.350377 -77.284597 30.433283 6.993554 14.271354 0.133309 -0.345990 0.011832
